<svg preserveAspectRatio="none" width="100%" height="100%" overflow="visible" style="display: block;" viewBox="0 0 17.7541 17.7541" fill="none" xmlns="http://www.w3.org/2000/svg">
<g id="Group">
<path id="Vector" d="M17.7006 8.03282C15.0897 7.35938 13.9672 7.53078 11.8179 8.39054C11.7033 8.4358 11.6176 8.46166 11.5533 8.46057C11.5609 8.38078 11.564 8.29892 11.564 8.21705C11.564 7.65572 11.4034 7.13208 11.1228 6.68933C11.5405 6.69678 13.0248 6.70116 14.0379 6.42959C15.0778 6.15057 15.7718 5.82519 16.6382 5.08928C16.8931 4.87272 16.6896 4.67227 16.5932 4.47731C12.2858 -3.17577 0.467962 -0.46817 0 8.43361C0.890992 9.35594 4.32125 8.73641 5.86981 8.21058V8.21705C5.86981 9.37106 6.55093 10.3665 7.52981 10.8201C7.22032 11.0831 7.12826 11.0798 6.82184 10.8837C4.88237 9.74609 2.13663 9.56175 0.140279 10.5466C2.28863 21.1399 17.6299 19.6045 17.7541 8.89696C17.7541 8.43043 17.7006 8.03282 17.7006 8.03282ZM6.25218 6.8067L6.23606 6.81317C2.294 8.42604 1.41145 7.6384 1.41145 7.6384C2.19438 0.73976 11.3638 -0.67815 14.7278 4.15094C11.4957 3.31267 10.807 4.15204 8.96932 5.36413C8.286 5.81566 7.44323 6.31869 6.25228 6.80681L6.25218 6.8067ZM7.12607 9.01324C7.11643 8.99286 7.10678 8.97236 7.09714 8.95077C7.08652 8.92771 7.07654 8.90436 7.06722 8.88074C7.06612 8.87746 7.06393 8.87318 7.06283 8.87C7.05429 8.84622 7.04464 8.82255 7.03719 8.79778C7.02858 8.77481 7.02108 8.75144 7.01472 8.72775C7.00716 8.70518 7.00179 8.68249 6.99544 8.6598C6.98897 8.63186 6.98261 8.60501 6.97724 8.57695C6.97315 8.55765 6.96957 8.53825 6.9665 8.51876C6.94925 8.41912 6.94063 8.31817 6.94075 8.21705C6.94075 8.18691 6.94075 8.15787 6.94294 8.12762V8.12116C6.94513 8.09211 6.94721 8.06307 6.95039 8.03392C6.95149 8.01452 6.95368 7.99513 6.95686 7.97573L6.96332 7.93364C6.96332 7.92937 6.96442 7.9251 6.96552 7.92181C6.96869 7.89923 6.97187 7.87874 6.97724 7.85715C6.98261 7.8292 6.98787 7.80224 6.99544 7.77528C6.99653 7.7709 6.99763 7.76662 6.99872 7.76125C7.00398 7.74186 7.00935 7.72257 7.01571 7.70317C7.019 7.69024 7.02327 7.67621 7.02755 7.66328C7.33704 7.49407 7.65409 7.3174 7.98605 7.15795H7.98714C8.46365 6.92736 8.9691 6.73338 9.52178 6.64505C9.53252 6.64286 9.54315 6.64177 9.55389 6.64067H9.55498C9.58282 6.6559 9.61066 6.67201 9.6374 6.68823H9.63849C9.66633 6.70544 9.69416 6.72264 9.72101 6.74204C9.74776 6.76034 9.7734 6.77974 9.79916 6.80024C9.8248 6.81963 9.85055 6.84122 9.87521 6.8627L9.93626 6.91772C9.95653 6.93602 9.97582 6.95542 9.99401 6.9758C10.0133 6.9952 10.0326 7.0157 10.0498 7.03608C10.068 7.05668 10.0862 7.07816 10.1033 7.09975C10.1161 7.11586 10.13 7.13318 10.1429 7.15039C10.1589 7.17197 10.174 7.19345 10.189 7.21614C10.2233 7.26787 10.2554 7.32058 10.2854 7.3756C10.3068 7.41549 10.326 7.45637 10.3432 7.49725C10.3506 7.51347 10.3571 7.52968 10.3636 7.54579C10.3903 7.60936 10.4118 7.67511 10.43 7.74306C10.4471 7.80553 10.461 7.87019 10.4705 7.93485C10.4749 7.95633 10.4771 7.97781 10.4792 8.0005C10.4814 8.00696 10.4814 8.01452 10.4825 8.02099C10.4899 8.08565 10.4931 8.15031 10.4931 8.21606C10.4931 8.27744 10.4898 8.33881 10.4835 8.39908C10.4835 8.40347 10.4824 8.40884 10.4813 8.41421C10.4813 8.4175 10.4802 8.42078 10.4802 8.42396C10.4771 8.44873 10.4738 8.4735 10.4706 8.49717C10.4662 8.52522 10.461 8.55208 10.4556 8.57903C10.4449 8.63295 10.431 8.68676 10.415 8.73849C10.4077 8.76477 10.3991 8.79066 10.3892 8.81608C10.3818 8.83877 10.3732 8.86025 10.3645 8.88294C10.3627 8.8867 10.3612 8.89067 10.3603 8.89477C10.3496 8.91844 10.34 8.94321 10.3282 8.96699C10.3175 8.99067 10.3057 9.01543 10.2929 9.0391C10.2703 9.08437 10.2447 9.12853 10.2179 9.17062C10.1739 9.24085 10.1248 9.3078 10.0711 9.37095C10.0508 9.39572 10.0294 9.4195 10.0079 9.44219C9.99378 9.45839 9.97878 9.47383 9.963 9.48844C9.90574 9.54579 9.84455 9.59907 9.77987 9.64789C9.74129 9.67693 9.70063 9.70389 9.65997 9.73085C9.6174 9.75736 9.57378 9.78215 9.52923 9.80516C9.48684 9.82799 9.44323 9.84847 9.39859 9.86653C9.37722 9.87639 9.35585 9.88494 9.33327 9.89141C9.32943 9.89409 9.32506 9.89592 9.32045 9.89678C9.29689 9.90642 9.27333 9.91398 9.24867 9.92155C9.21546 9.93229 9.18226 9.94204 9.14795 9.9507C9.1234 9.95607 9.09864 9.96253 9.07409 9.96681C9.0548 9.97119 9.03452 9.97547 9.01414 9.97755C8.99913 9.98084 8.98411 9.98303 8.96921 9.98522C8.94571 9.9886 8.92214 9.99145 8.89852 9.99377C8.87496 9.99706 8.8503 9.99815 8.82674 10.0002C8.73428 10.0059 8.64152 10.004 8.54936 9.99475H8.54716C8.51933 9.99267 8.49149 9.9884 8.46365 9.98511C8.40498 9.97664 8.34672 9.96549 8.28907 9.95168C8.27198 9.94741 8.25587 9.94204 8.23877 9.93777C8.21948 9.93229 8.20019 9.92692 8.182 9.92045C8.15985 9.91406 8.13805 9.90652 8.11668 9.89787C8.08211 9.88635 8.04817 9.87303 8.01498 9.85798C7.99341 9.8494 7.97231 9.83971 7.95174 9.82894C7.93574 9.82127 7.91963 9.81382 7.90352 9.80516C7.88334 9.79545 7.86369 9.78465 7.84467 9.77283C7.82111 9.7599 7.79755 9.74598 7.77508 9.73195H7.77398C7.75261 9.71902 7.73124 9.70389 7.70976 9.68987C7.69047 9.67693 7.67228 9.66302 7.65299 9.64899C7.63371 9.63386 7.61332 9.61885 7.59403 9.60153C7.39809 9.44084 7.23857 9.24031 7.12607 9.01324ZM2.42453 13.0559C4.76675 13.5483 7.04256 12.7111 8.95627 11.3438C9.13212 11.2184 9.30956 11.0952 9.48857 10.9743C9.95127 10.6628 10.3903 10.3924 10.8059 10.1597H10.807C14.8047 7.91425 16.6553 9.03702 16.6553 9.03702C15.73 17.2869 5.8012 18.7996 2.42464 13.0559H2.42453Z" fill="var(--fill-0, #5F6368)"/>
</g>
</svg>
