<svg preserveAspectRatio="none" width="100%" height="100%" overflow="visible" style="display: block;" viewBox="0 0 90 15" fill="none" xmlns="http://www.w3.org/2000/svg">
<g id="Frame" clip-path="url(#clip0_0_4)">
<path id="Vector" d="M26.1469 13.3584C25.6005 13.3584 25.2256 13.2581 25.022 13.0538C24.822 12.853 24.7185 12.4588 24.7185 11.8889V5.74552H27.5003V4.30824H15.7267V5.74552H17.5515V11.8889C17.5515 12.914 17.7943 13.6667 18.2693 14.1254C18.7442 14.5842 19.4727 14.8136 20.4261 14.8136H21.9867V13.3584H20.6297C20.0833 13.3584 19.7084 13.2581 19.5048 13.0538C19.3048 12.853 19.2013 12.4588 19.2013 11.8889V5.74552H23.058V11.8889C23.058 12.914 23.3008 13.6667 23.7757 14.1254C24.2507 14.5842 24.9792 14.8136 25.9326 14.8136H27.4932V13.3584H26.1362H26.1469Z" fill="var(--fill-0, #5F6368)"/>
<path id="Vector_2" d="M35.1422 4.81362C34.3959 4.37634 33.5139 4.15771 32.5247 4.15771C31.5355 4.15771 30.6392 4.37634 29.8643 4.81362C29.0858 5.2509 28.468 5.88889 28.0324 6.70609C27.6003 7.5233 27.3825 8.48387 27.3825 9.56272C27.3825 10.6416 27.6039 11.5986 28.0431 12.4086C28.4859 13.2222 29.1037 13.8602 29.8822 14.3011C30.6571 14.7419 31.5462 14.9677 32.5247 14.9677C33.7817 14.9677 34.8423 14.638 35.6815 13.9892C36.5171 13.3441 37.0742 12.4946 37.3277 11.466L37.3813 11.2545H35.6636L35.6315 11.3799C35.4565 12.0323 35.0958 12.5591 34.5566 12.9427C34.0138 13.3298 33.3317 13.5269 32.5283 13.5269C31.9141 13.5269 31.3391 13.3907 30.8249 13.1254C30.3107 12.8602 29.8893 12.466 29.575 11.9498C29.2822 11.4731 29.1072 10.8961 29.0537 10.233H37.4313L37.4455 10.0824C37.4705 9.83871 37.4848 9.48746 37.4848 9.03943C37.4848 8.14695 37.2813 7.319 36.8813 6.58423C36.4778 5.84588 35.8957 5.2509 35.1494 4.81362H35.1422ZM29.0501 8.83154C29.1465 7.83871 29.5036 7.05376 30.1107 6.50179C30.7571 5.91398 31.5498 5.6129 32.4676 5.6129C33.0818 5.6129 33.6531 5.74552 34.1745 6.00358C34.6887 6.26165 35.0994 6.64875 35.3958 7.15054C35.6708 7.6129 35.8136 8.17921 35.8279 8.83154H29.0537H29.0501Z" fill="var(--fill-0, #5F6368)"/>
<path id="Vector_3" d="M43.3448 4.12186C42.5521 4.12186 41.8343 4.29391 41.2058 4.63441C40.7487 4.88172 40.3666 5.21147 40.0631 5.62007V4.30824H38.4276V14.8172H40.0631V9.09677C40.0631 7.94265 40.3416 7.06093 40.888 6.47312C41.4344 5.89247 42.1807 5.59498 43.1056 5.59498C44.0305 5.59498 44.7232 5.87097 45.2375 6.41577C45.7553 6.96416 46.0159 7.77778 46.0159 8.83154V14.8136H47.6336V8.68459C47.6336 7.21505 47.2301 6.07527 46.4302 5.29391C45.6339 4.51613 44.5947 4.11828 43.3448 4.11828V4.12186Z" fill="var(--fill-0, #5F6368)"/>
<path id="Vector_4" d="M54.7328 9.53763C54.2935 9.34767 53.6972 9.15054 52.9651 8.9534C52.3688 8.78136 51.8867 8.62366 51.5367 8.48387C51.2011 8.35125 50.9189 8.16487 50.694 7.92832C50.4833 7.70609 50.3797 7.42294 50.3797 7.0681C50.3797 6.6595 50.5583 6.32617 50.9261 6.0466C51.301 5.75986 51.8045 5.61649 52.4188 5.61649C53.1151 5.61649 53.6686 5.78853 54.0614 6.12545C54.4542 6.46237 54.6649 6.89606 54.6971 7.45161L54.7078 7.60932H56.3433L56.3326 7.43011C56.279 6.41577 55.8969 5.60573 55.1934 5.02509C54.4971 4.44803 53.5722 4.15771 52.4509 4.15771C51.7367 4.15771 51.0903 4.28674 50.5261 4.5448C49.9548 4.80645 49.5084 5.16487 49.1977 5.60573C48.8799 6.05735 48.7228 6.55197 48.7228 7.08244C48.7228 7.77778 48.9013 8.34409 49.2548 8.76702C49.5977 9.17921 50.0226 9.49104 50.5154 9.69892C50.9904 9.89964 51.6153 10.1039 52.3759 10.3047C52.9473 10.4516 53.4044 10.5878 53.74 10.7168C54.0579 10.8387 54.3221 11.0036 54.5257 11.2079C54.7185 11.4014 54.8113 11.6416 54.8113 11.9427C54.8113 12.3907 54.6328 12.7563 54.2685 13.0609C53.9007 13.3692 53.3794 13.5233 52.7152 13.5233C51.951 13.5233 51.3367 13.3548 50.8939 13.0251C50.4547 12.6989 50.2119 12.2832 50.1547 11.7563L50.1369 11.6057H48.4657L48.4835 11.7921C48.5728 12.7706 49.012 13.552 49.7869 14.1183C50.5476 14.6774 51.5403 14.9606 52.7366 14.9606C53.4508 14.9606 54.0936 14.8315 54.6471 14.5735C55.2041 14.3118 55.6469 13.9534 55.9576 13.5018C56.2719 13.0466 56.4326 12.5233 56.4326 11.9427C56.4183 11.3047 56.2433 10.7849 55.9076 10.3978C55.5827 10.0179 55.1863 9.7276 54.7328 9.53405V9.53763Z" fill="var(--fill-0, #5F6368)"/>
<path id="Vector_5" d="M64.7637 4.82079C63.971 4.37993 63.0711 4.15771 62.0926 4.15771C61.1142 4.15771 60.2178 4.37993 59.4322 4.82079C58.6394 5.26523 58.0074 5.89964 57.5503 6.70968C57.0932 7.51971 56.8611 8.4767 56.8611 9.55914C56.8611 10.6416 57.0896 11.5986 57.5431 12.4086C57.9931 13.2222 58.6216 13.8566 59.4072 14.2975C60.1893 14.7384 61.082 14.9606 62.0605 14.9606C63.0389 14.9606 63.9388 14.7384 64.7387 14.2975C65.5422 13.8566 66.185 13.2151 66.6421 12.3978C67.0992 11.5806 67.3313 10.6272 67.3313 9.55914C67.3313 8.49104 67.1027 7.51971 66.6528 6.70968C66.1993 5.89606 65.5672 5.26165 64.7673 4.8172L64.7637 4.82079ZM62.0533 13.491C61.4177 13.491 60.8213 13.3441 60.2857 13.0538C59.7536 12.767 59.3215 12.3226 59.0001 11.7419C58.6752 11.1541 58.5109 10.4229 58.5109 9.56272C58.5109 8.70251 58.6752 7.96774 59.0001 7.38351C59.3215 6.80287 59.7572 6.36201 60.2964 6.07168C60.8356 5.78136 61.4355 5.63441 62.0712 5.63441C62.7068 5.63441 63.3067 5.78136 63.846 6.07168C64.3852 6.36201 64.8244 6.80287 65.153 7.38351C65.4815 7.97133 65.6493 8.70609 65.6493 9.56272C65.6493 10.4194 65.4779 11.1541 65.1422 11.7419C64.8066 12.3262 64.3638 12.767 63.8281 13.0573C63.2853 13.3477 62.689 13.4946 62.0533 13.4946V13.491Z" fill="var(--fill-0, #5F6368)"/>
<path id="Vector_6" d="M73.2091 5.8172H73.377V4.11828H73.2091C72.3307 4.11828 71.5736 4.30108 70.963 4.66308C70.538 4.91398 70.1845 5.24014 69.9095 5.63799V4.30466H68.274V14.8136H69.9095V8.96416C69.9095 7.82796 70.1774 7.01075 70.7059 6.53763C71.2415 6.06093 71.9629 5.8172 72.8592 5.8172H73.2127H73.2091Z" fill="var(--fill-0, #5F6368)"/>
<path id="Vector_7" d="M73.1984 12.6523C72.877 12.6523 72.6021 12.7599 72.3878 12.9713C72.1736 13.1828 72.0629 13.4516 72.0629 13.7706C72.0629 14.0896 72.17 14.3584 72.3842 14.5771C72.5985 14.7957 72.8735 14.9104 73.1984 14.9104C73.5234 14.9104 73.7769 14.7993 73.9912 14.5771C74.2055 14.3584 74.3126 14.086 74.3126 13.7706C74.3126 13.4552 74.2055 13.1864 73.9876 12.9713C73.7698 12.7599 73.5055 12.6523 73.1949 12.6523H73.1984Z" fill="var(--fill-0, #5F6368)"/>
<path id="Vector_8" d="M82.4652 4.69176C81.8224 4.33692 81.0796 4.15771 80.2512 4.15771C79.0406 4.15771 78.03 4.51254 77.2515 5.21505C76.4766 5.91756 76.0052 6.83154 75.8517 7.93548L75.8231 8.12903H77.4408L77.4622 7.98566C77.5801 7.24731 77.8836 6.66667 78.3692 6.25448C78.8549 5.84229 79.4727 5.63441 80.2083 5.63441C81.0439 5.63441 81.6938 5.89606 82.1402 6.41577C82.5652 6.91039 82.8044 7.61649 82.8544 8.51971H79.6691C78.3585 8.51971 77.3408 8.82796 76.6445 9.43728C75.941 10.0538 75.5839 10.8674 75.5839 11.8566C75.5839 12.4588 75.7374 13.0036 76.0374 13.4839C76.3373 13.9606 76.7623 14.3405 77.3015 14.6057C77.8336 14.871 78.4478 15.0036 79.1299 15.0036C80.0369 15.0036 80.8654 14.7742 81.5939 14.3154C82.1188 13.9892 82.5402 13.5914 82.858 13.129V14.8172H84.5114V8.70609C84.5114 7.76344 84.3292 6.93907 83.9721 6.26165C83.6115 5.57706 83.1008 5.05018 82.458 4.69176H82.4652ZM79.3763 13.5269C78.7121 13.5269 78.18 13.362 77.7979 13.0358C77.4122 12.7133 77.2265 12.2975 77.2265 11.7599C77.2265 11.2222 77.4265 10.7634 77.8336 10.4301C78.2478 10.0896 78.8656 9.91756 79.6762 9.91756H82.8651V10.0824C82.8651 10.7778 82.7009 11.3943 82.3795 11.9104C82.0581 12.4301 81.626 12.8315 81.0975 13.1075C80.5654 13.3835 79.9869 13.5233 79.3763 13.5233V13.5269Z" fill="var(--fill-0, #5F6368)"/>
<path id="Vector_9" d="M86.6861 5.12903V14.8172H87.0825C87.7681 14.8172 88.3216 14.2616 88.3216 13.5735V5.12903C88.3216 4.67384 87.9538 4.30824 87.5039 4.30824C87.0504 4.30824 86.6861 4.67742 86.6861 5.12903Z" fill="var(--fill-0, #5F6368)"/>
<path id="Vector_10" d="M13.277 5.12903V13.6237C13.277 14.2832 13.8091 14.8172 14.4661 14.8172H14.9161V5.12903C14.9161 4.67384 14.5483 4.30824 14.0983 4.30824C13.6448 4.30824 13.2806 4.67742 13.2806 5.12903H13.277Z" fill="var(--fill-0, #5F6368)"/>
<path id="Vector_11" d="M10.9987 8.88531C10.7916 8.58781 10.7916 8.19355 10.9987 7.89606C11.4772 7.21864 11.8093 6.45161 11.8093 5.62366V5.54122C11.8093 3.56631 10.2166 1.96774 8.24902 1.96774H3.06035V6.94624H4.66373V3.57706H8.24902C9.32746 3.57706 10.2059 4.4552 10.2059 5.54122V5.62366C10.2059 6.07168 10.0488 6.50538 9.77027 6.86022C9.05607 7.76344 9.05607 9.02151 9.77027 9.92473C10.0488 10.276 10.2059 10.7097 10.2059 11.1613V11.2437C10.2059 12.3262 9.33103 13.2079 8.24902 13.2079H4.88156C4.76015 13.2079 4.66373 13.1111 4.66373 12.9892V11.0215C4.66373 10.2294 4.23164 9.34409 3.66742 9.07169H6.2314C7.00988 9.07169 7.63838 8.43728 7.63838 7.6595H1.40698C0.628497 7.6595 0 8.29391 0 9.07169H3.05678V12.9892C3.05678 14 3.87454 14.8208 4.88156 14.8208H8.24902C10.2166 14.8208 11.8093 13.2222 11.8093 11.2473V11.1649C11.8093 10.3333 11.4736 9.56989 10.9987 8.88889V8.88531Z" fill="var(--fill-0, #5F6368)"/>
<path id="Vector_12" d="M87.711 3.58065C87.8967 3.54122 88.061 3.4552 88.2002 3.3405C88.2145 3.32616 88.2324 3.30824 88.2466 3.29391C88.7037 2.83513 89.3394 2.54839 90.0393 2.54839C89.3644 2.54839 88.743 2.27599 88.2931 1.84946C88.2788 1.83513 88.2609 1.8172 88.2466 1.80287C87.7896 1.34409 87.5039 0.706093 87.5039 0.00358423C87.5039 0.681004 87.2325 1.30466 86.8075 1.75627L86.7611 1.80287C86.304 2.26165 85.6684 2.54839 84.9685 2.54839C85.6434 2.54839 86.2647 2.82079 86.7147 3.24731L86.7611 3.29391C87.0004 3.53405 87.3575 3.6595 87.7146 3.58065H87.711Z" fill="var(--fill-0, #5F6368)"/>
<path id="Vector_13" d="M14.3054 3.58065C14.4911 3.54122 14.6554 3.4552 14.7947 3.3405C14.809 3.32616 14.8268 3.30824 14.8411 3.29391C15.2982 2.83513 15.9338 2.54839 16.6337 2.54839C15.9588 2.54839 15.3375 2.27599 14.8875 1.84946C14.8732 1.83513 14.8554 1.8172 14.8411 1.80287C14.384 1.34409 14.0983 0.706093 14.0983 0.00358423C14.0983 0.681004 13.8269 1.30466 13.402 1.75627L13.3556 1.80287C12.8985 2.26165 12.2628 2.54839 11.5629 2.54839C12.2378 2.54839 12.8592 2.82079 13.3091 3.24731L13.3556 3.29391C13.5948 3.53405 13.9519 3.6595 14.309 3.58065H14.3054Z" fill="var(--fill-0, #5F6368)"/>
</g>
<defs>
<clipPath id="clip0_0_4">
<rect width="90" height="15" fill="white"/>
</clipPath>
</defs>
</svg>
