<svg preserveAspectRatio="none" width="100%" height="100%" overflow="visible" style="display: block;" viewBox="0 0 72.4368 13.5003" fill="none" xmlns="http://www.w3.org/2000/svg">
<g id="Group 1321314686">
<path id="Vector" d="M6.0553 11.4124H7.19065V13.2614H5.63702C3.64513 13.2614 2.11137 12.2871 2.11137 10.1995V4.37407H0V2.54492H2.11137V0H4.60126V2.54492H7.15079V4.37407H4.60126V10.0802C4.60126 11.1141 5.13902 11.4124 6.0553 11.4124Z" fill="var(--fill-0, #5F6368)"/>
<path id="Vector_2" d="M12.4761 2.3066C15.7826 2.3066 17.177 4.23518 17.177 6.42221V13.2617H14.7069V11.1343C14.0297 12.546 13.1134 13.5002 11.0618 13.5002C9.03006 13.5002 7.39671 12.0489 7.39671 10.0209C7.39671 7.53562 9.80698 6.9988 11.8386 6.79998L14.6871 6.50174V6.3228C14.6871 5.07023 13.97 4.05623 12.4761 4.05623C11.1415 4.05623 10.4045 4.85153 10.265 5.74622H7.75525C8.01419 3.63872 9.84674 2.3066 12.4761 2.3066ZM12.018 11.9296C13.7907 11.9296 14.6871 10.4981 14.6871 8.70866V8.07243L12.7549 8.27125C11.4005 8.43032 9.92646 8.62914 9.92646 10.0209C9.92646 11.2337 10.8826 11.9296 12.018 11.9296Z" fill="var(--fill-0, #5F6368)"/>
<path id="Vector_3" d="M23.4641 13.5002C20.1576 13.5002 18.0661 11.2138 18.0661 7.8935C18.0661 4.59305 20.1576 2.3066 23.4641 2.3066C26.7906 2.3066 28.8821 4.59305 28.8821 7.8935C28.8821 11.2138 26.7906 13.5002 23.4641 13.5002ZM23.4641 11.7507C25.3166 11.7507 26.3324 10.2594 26.3324 7.8935C26.3324 5.5474 25.3166 4.05623 23.4641 4.05623C21.6316 4.05623 20.5958 5.5474 20.5958 7.8935C20.5958 10.2594 21.6316 11.7507 23.4641 11.7507Z" fill="var(--fill-0, #5F6368)"/>
<path id="Vector_4" d="M33.9029 13.5002C31.3932 13.5002 29.461 12.3471 29.1423 10.0805H31.6521C31.911 11.3728 32.9469 11.7507 33.9627 11.7507C35.4765 11.7507 36.2733 11.2138 36.2733 10.3788C36.2733 9.56359 35.7753 9.16596 34.2216 8.84784L32.5285 8.47008C30.5765 8.05255 29.3814 7.15785 29.3814 5.52752C29.3814 3.55918 31.3733 2.3066 33.8233 2.3066C36.094 2.3066 38.0063 3.30071 38.4644 5.28893H35.9546C35.6757 4.49364 34.7993 4.05623 33.8432 4.05623C32.7676 4.05623 31.7916 4.51353 31.7916 5.32869C31.7916 6.06434 32.4489 6.3228 33.7436 6.60116L35.4367 6.95903C37.6875 7.43621 38.6635 8.43032 38.6635 10.1401C38.6635 12.2675 36.6518 13.5002 33.9029 13.5002Z" fill="var(--fill-0, #5F6368)"/>
<path id="Vector_5" d="M44.3611 11.4124H45.4965V13.2614H43.9429C41.951 13.2614 40.4172 12.2871 40.4172 10.1995V4.37407H38.3057V2.54492H40.4172V0H42.907V2.54492H45.4566V4.37407H42.907V10.0802C42.907 11.1141 43.4449 11.4124 44.3611 11.4124Z" fill="var(--fill-0, #5F6368)"/>
<path id="Vector_6" d="M50.7817 2.3066C54.0883 2.3066 55.4826 4.23518 55.4826 6.42221V13.2617H53.0127V11.1343C52.3355 12.546 51.4192 13.5002 49.3676 13.5002C47.3358 13.5002 45.7024 12.0489 45.7024 10.0209C45.7024 7.53562 48.1126 6.9988 50.1444 6.79998L52.9928 6.50174V6.3228C52.9928 5.07023 52.2757 4.05623 50.7817 4.05623C49.4472 4.05623 48.7102 4.85153 48.5708 5.74622H46.061C46.3199 3.63872 48.1525 2.3066 50.7817 2.3066ZM50.3236 11.9296C52.0964 11.9296 52.9928 10.4981 52.9928 8.70866V8.07243L51.0606 8.27125C49.7061 8.43032 48.2322 8.62914 48.2322 10.0209C48.2322 11.2337 49.1882 11.9296 50.3236 11.9296Z" fill="var(--fill-0, #5F6368)"/>
<path id="Vector_7" d="M61.7534 11.4124H62.8888V13.2614H61.3351C59.3433 13.2614 57.8095 12.2871 57.8095 10.1995V4.37407H55.698V2.54492H57.8095V0H60.2993V2.54492H62.8489V4.37407H60.2993V10.0802C60.2993 11.1141 60.8371 11.4124 61.7534 11.4124Z" fill="var(--fill-0, #5F6368)"/>
<path id="Vector_8" d="M67.676 13.5002C65.1662 13.5002 63.234 12.3471 62.9154 10.0805H65.4251C65.6841 11.3728 66.7198 11.7507 67.7357 11.7507C69.2496 11.7507 70.0463 11.2138 70.0463 10.3788C70.0463 9.56359 69.5483 9.16596 67.9946 8.84784L66.3015 8.47008C64.3495 8.05255 63.1543 7.15785 63.1543 5.52752C63.1543 3.55918 65.1462 2.3066 67.5962 2.3066C69.867 2.3066 71.7792 3.30071 72.2374 5.28893H69.7276C69.4488 4.49364 68.5722 4.05623 67.6162 4.05623C66.5406 4.05623 65.5646 4.51353 65.5646 5.32869C65.5646 6.06434 66.2218 6.3228 67.5166 6.60116L69.2097 6.95903C71.4605 7.43621 72.4366 8.43032 72.4366 10.1401C72.4366 12.2675 70.4248 13.5002 67.676 13.5002Z" fill="var(--fill-0, #5F6368)"/>
</g>
</svg>
